<?xml version="1.0" encoding="UTF-8" standalone="no"?><!DOCTYPE svg PUBLIC "-//W3C//DTD SVG 1.1//EN" "http://www.w3.org/Graphics/SVG/1.1/DTD/svg11.dtd"><svg width="100%" height="100%" viewBox="0 0 1127 1206" version="1.1" xmlns="http://www.w3.org/2000/svg" xmlns:xlink="http://www.w3.org/1999/xlink" xml:space="preserve" xmlns:serif="http://www.serif.com/" style="fill-rule:evenodd;clip-rule:evenodd;stroke-linecap:round;stroke-linejoin:round;stroke-miterlimit:1.5;"><g><g><g><path d="M1084.1,20.833c0,-5.749 -4.667,-10.416 -10.416,-10.416l-1020.83,0c-5.749,0 -10.416,4.667 -10.416,10.416l0,1020.83c0,5.749 4.667,10.416 10.416,10.416l1020.83,0c5.749,0 10.416,-4.667 10.416,-10.416l0,-1020.83Z" style="fill:#d6041c;stroke:#d6041c;stroke-width:20.83px;"/></g><rect x="568.632" y="541.667" width="479.167" height="479.167" style="fill:#fff;stroke:#d6041c;stroke-width:4.17px;"/><path d="M404.432,895.717c-0.8,0 -7.9,0.1 -21.3,0.3c-13.4,0.2 -29.6,0.4 -48.6,0.6c-19,0.2 -38.9,0.4 -59.7,0.6c-20.8,0.2 -38.8,0.3 -54,0.3c-21.6,0 -38.5,-0.4 -50.7,-1.2c-12.2,-0.8 -20.5,-1.2 -24.9,-1.2c-14,0 -21,3.6 -21,10.8c0,5.2 2.3,10.3 6.9,15.3c4.6,5 10.1,9.5 16.5,13.5c6.4,4 13,7.2 19.8,9.6c6.8,2.4 12.4,3.6 16.8,3.6c4,0 6.3,-0.2 6.9,-0.6c0.6,-0.4 1.7,-0.9 3.3,-1.5c1.6,-0.6 4.9,-1.4 9.9,-2.4c5,-1 13.9,-2.1 26.7,-3.3c10,-0.8 18.7,-1.5 26.1,-2.1c7.4,-0.6 13.3,-0.9 17.7,-0.9c66.4,0 117,0.2 151.8,0.6c34.8,0.4 54.2,0.6 58.2,0.6c9.6,0 16.7,-2.6 21.3,-7.8c4.6,-5.2 6.9,-11 6.9,-17.4c0,-7.2 -2.7,-13.7 -8.1,-19.5c-5.4,-5.8 -13.5,-8.7 -24.3,-8.7c-4.4,0 -9.6,0.6 -15.6,1.8c-6,1.2 -12.5,2.4 -19.5,3.6c-7,1.2 -14.1,2.4 -21.3,3.6c-7.2,1.2 -13.8,1.8 -19.8,1.8Zm-40.2,-131.4l-101.4,1.8c-7.6,0 -11.4,-2.4 -11.4,-7.2l0,-102.6l157.2,-0.6c0.8,0 1.7,0.1 2.7,0.3c1,0.2 1.9,0.3 2.7,0.3c8,0 14,-1.7 18,-5.1c4,-3.4 6,-7.3 6,-11.7c0,-6.8 -4.2,-13 -12.6,-18.6c-8.4,-5.6 -19.6,-8.4 -33.6,-8.4c-11.2,0 -20,3.2 -26.4,9.6c-25.2,0 -46.3,-0.1 -63.3,-0.3c-17,-0.2 -31.1,-0.5 -42.3,-0.9c-11.2,-0.4 -19.9,-0.8 -26.1,-1.2c-6.2,-0.4 -11.1,-0.8 -14.7,-1.2c-3.6,-0.4 -6.4,-0.7 -8.4,-0.9c-2,-0.2 -4.2,-0.3 -6.6,-0.3c-4.4,0 -8.9,0.4 -13.5,1.2c-4.6,0.8 -8.8,1.9 -12.6,3.3c-3.8,1.4 -7,3.1 -9.6,5.1c-2.6,2 -3.9,4 -3.9,6c0,2.4 0.6,4.2 1.8,5.4c1.2,1.2 3.1,2.5 5.7,3.9c2.6,1.4 5.9,3.2 9.9,5.4c4,2.2 9,5.1 15,8.7c6.4,4 9.6,8 9.6,12c0,0.8 -0.1,1.3 -0.3,1.5c-0.2,0.2 -0.3,0.5 -0.3,0.9l0,76.2c0,17.2 4,29.7 12,37.5c8,7.8 21.2,11.7 39.6,11.7l157.2,-0.6c19.6,0 29.4,-7.2 29.4,-21.6c0,-8 -3.7,-13.7 -11.1,-17.1c-7.4,-3.4 -15.9,-5.1 -25.5,-5.1c-8.8,0 -17.3,1.1 -25.5,3.3c-8.2,2.2 -14.1,5.3 -17.7,9.3Z" style="fill:#fff;fill-rule:nonzero;stroke:#fff;stroke-width:4.17px;stroke-linecap:butt;stroke-miterlimit:2;"/><path d="M507.032,323.417l0,-180.6c1.2,-2.4 1.8,-5 1.8,-7.8c0,-6.4 -3,-11.6 -9,-15.6c-6,-4 -12.9,-7.2 -20.7,-9.6c-7.8,-2.4 -15.8,-4 -24,-4.8c-8.2,-0.8 -14.3,-1.2 -18.3,-1.2c-8.4,0 -15.4,1.4 -21,4.2c-5.6,2.8 -8.4,6.4 -8.4,10.8c0,3.6 1.9,6.5 5.7,8.7c3.8,2.2 7.9,4.5 12.3,6.9c4.4,2.4 8.5,5.3 12.3,8.7c3.8,3.4 5.7,7.9 5.7,13.5l0,234.6c0,12.8 1.6,22.1 4.8,27.9c3.2,5.8 7.2,8.7 12,8.7c4.8,0 9.9,-2.6 15.3,-7.8c5.4,-5.2 10.4,-12.4 15,-21.6c4.6,-9.2 8.5,-20.2 11.7,-33c3.2,-12.8 4.8,-26.8 4.8,-42Zm-353.4,-172.2c-1.2,-0.4 -3.8,-0.6 -7.8,-0.6c-9.6,0 -14.4,3.8 -14.4,11.4c0,9.2 5.3,16.2 15.9,21c10.6,4.8 22.9,7.2 36.9,7.2c1.2,0 4.3,-0.6 9.3,-1.8c5,-1.2 8.9,-2 11.7,-2.4c0.8,0 1.8,0.1 3,0.3c1.2,0.2 2.4,0.3 3.6,0.3c4,0 9.5,-0.2 16.5,-0.6c7,-0.4 13.9,-0.9 20.7,-1.5c6.8,-0.6 12.9,-1.1 18.3,-1.5c5.4,-0.4 8.5,-0.6 9.3,-0.6c-0.8,10 -1.9,20.5 -3.3,31.5c-1.4,11 -3.1,22.7 -5.1,35.1c-51.6,4.8 -87.4,7.2 -107.4,7.2c-2.8,0 -5.2,-0.1 -7.2,-0.3c-2,-0.2 -4,-0.3 -6,-0.3c-12.8,0 -19.2,3.8 -19.2,11.4c0,2.4 1.2,5.2 3.6,8.4c2.4,3.2 5.9,6.2 10.5,9c4.6,2.8 10,5.2 16.2,7.2c6.2,2 12.9,3 20.1,3c6.8,0 12.6,-1.8 17.4,-5.4c13.6,-2 26,-4.2 37.2,-6.6c11.2,-2.4 21.2,-4.6 30,-6.6c-8,39.2 -14.7,68.3 -20.1,87.3c-5.4,19 -8.1,30.7 -8.1,35.1c0,8 3,12 9,12c7.2,0 14.8,-7.6 22.8,-22.8c8,-15.2 15.7,-34 23.1,-56.4c7.4,-22.4 14.2,-46.4 20.4,-72c6.2,-25.6 11.1,-48.8 14.7,-69.6c8.4,-12.4 12.6,-21.2 12.6,-26.4c0,-8.8 -13.2,-13.2 -39.6,-13.2c-12.8,1.6 -25.8,2.7 -39,3.3c-13.2,0.6 -26.4,0.9 -39.6,0.9c-10.8,0 -21.7,-0.3 -32.7,-0.9c-11,-0.6 -22.1,-1.3 -33.3,-2.1Z" style="fill:#fff;fill-rule:nonzero;stroke:#fff;stroke-width:4.17px;stroke-linecap:butt;stroke-miterlimit:2;"/><path d="M841.798,965.737l-60.666,0l0,-69.333c0,-9.75 -4.153,-17.062 -12.459,-21.937c-8.305,-4.875 -17.514,-7.313 -27.625,-7.313c-9.027,0 -17.333,2.077 -24.916,6.229c-7.584,4.153 -11.375,8.938 -11.375,14.354c0,2.167 1.534,4.063 4.604,5.688c3.069,1.625 6.59,3.16 10.562,4.604c3.973,1.445 7.854,2.979 11.646,4.604c3.792,1.625 6.41,3.702 7.854,6.229l0,46.584c0.361,9.028 1.354,16.069 2.979,21.125c1.625,5.055 4.605,8.847 8.938,11.375c4.333,2.528 10.472,4.062 18.417,4.604c7.944,0.542 18.777,0.812 32.5,0.812c11.916,0 23.02,-0.09 33.312,-0.27c10.292,-0.181 19.771,-0.271 28.438,-0.271l35.208,0c0.722,0.361 2.347,0.541 4.875,0.541c6.5,0 11.736,-1.715 15.708,-5.145c3.973,-3.431 5.959,-8.035 5.959,-13.813c0,-12.639 -12.459,-18.958 -37.375,-18.958c-10.834,0 -19.861,1.715 -27.084,5.146c-7.222,3.43 -13.722,5.145 -19.5,5.145Zm135.959,-189.583l0,-173.875c1.083,-2.167 1.625,-4.514 1.625,-7.042c0,-5.777 -2.709,-10.472 -8.125,-14.083c-5.417,-3.611 -11.646,-6.5 -18.688,-8.667c-7.042,-2.166 -14.264,-3.611 -21.667,-4.333c-7.402,-0.722 -12.909,-1.083 -16.52,-1.083c-7.584,0 -13.903,1.264 -18.959,3.791c-5.055,2.528 -7.583,5.778 -7.583,9.75c0,3.25 1.715,5.869 5.146,7.855c3.43,1.986 7.132,4.062 11.104,6.229c3.972,2.166 7.674,4.785 11.104,7.854c3.431,3.069 5.146,7.132 5.146,12.187l0,222.625c0,11.556 1.444,19.952 4.333,25.188c2.889,5.236 6.5,7.854 10.834,7.854c4.333,0 8.937,-2.347 13.812,-7.042c4.875,-4.694 9.389,-11.194 13.542,-19.5c4.153,-8.305 7.673,-18.236 10.562,-29.791c2.889,-11.556 4.334,-24.195 4.334,-37.917Zm-250.25,3.792c-13.723,0 -25.007,-4.695 -33.855,-14.084c-8.847,-9.388 -13.27,-22.75 -13.27,-40.083c0,-15.167 4.514,-27.173 13.541,-36.021c9.028,-8.847 20.403,-13.271 34.125,-13.271c14.084,0 25.549,4.424 34.396,13.271c8.847,8.848 13.271,20.854 13.271,36.021c0,7.583 -1.264,14.625 -3.792,21.125c-2.527,6.5 -6.048,12.188 -10.562,17.063c-4.514,4.875 -9.66,8.757 -15.438,11.645c-5.777,2.889 -11.916,4.334 -18.416,4.334Zm0,-159.792c-6.139,-1.083 -11.014,-1.625 -14.625,-1.625c-9.75,0 -14.625,3.611 -14.625,10.833c0,4.334 3.25,11.014 9.75,20.042c-20.584,5.417 -37.556,14.986 -50.917,28.708c-13.361,13.723 -20.042,30.334 -20.042,49.834c0,13.361 2.438,25.097 7.313,35.208c4.875,10.111 11.375,18.688 19.5,25.729c8.125,7.042 17.694,12.368 28.708,15.979c11.014,3.612 22.66,5.417 34.938,5.417c12.277,0 23.833,-1.805 34.666,-5.417c10.834,-3.611 20.313,-8.937 28.438,-15.979c8.125,-7.041 14.535,-15.527 19.229,-25.458c4.694,-9.931 7.042,-21.215 7.042,-33.854c0,-37.195 -18.778,-62.653 -56.334,-76.375c0,-1.084 0.091,-2.077 0.271,-2.979c0.181,-0.903 0.271,-1.896 0.271,-2.98c0,-8.305 -2.799,-14.444 -8.396,-18.416c-5.597,-3.972 -13.993,-6.861 -25.187,-8.667Z" style="fill:#d6041c;fill-rule:nonzero;stroke:#d6041c;stroke-width:4.17px;stroke-linecap:butt;stroke-miterlimit:2;"/><path d="M950.932,400.517c-10.4,4 -25.8,6 -46.2,6c-2.8,0 -9.6,0.1 -20.4,0.3c-10.8,0.2 -25.8,0.5 -45,0.9c0,-12.4 0.1,-22.4 0.3,-30c0.2,-7.6 0.4,-13.4 0.6,-17.4c0.2,-4 0.4,-6.6 0.6,-7.8c0.2,-1.2 0.5,-1.8 0.9,-1.8c0.4,0 0.6,0.2 0.6,0.6c0,0.4 0.2,0.6 0.6,0.6l0,-1.2c0,-0.4 0.1,-1 0.3,-1.8c0.2,-0.8 0.3,-1.8 0.3,-3c0,-4.8 -2.3,-8.5 -6.9,-11.1c-4.6,-2.6 -10,-4.4 -16.2,-5.4c-6.2,-1 -12.5,-1.6 -18.9,-1.8c-6.4,-0.2 -11.4,-0.3 -15,-0.3c-6.8,0 -12,1.2 -15.6,3.6c-3.6,2.4 -5.4,5 -5.4,7.8c0,3.2 1.8,5.8 5.4,7.8c3.6,2 7.5,4.1 11.7,6.3c4.2,2.2 8.1,4.9 11.7,8.1c3.6,3.2 5.4,7.4 5.4,12.6l0,34.8l-51.6,0c-30,0 -53.5,-0.4 -70.5,-1.2c-17,-0.8 -27.7,-1.2 -32.1,-1.2c-14,0 -21,3.6 -21,10.8c0,5.2 2.3,10.3 6.9,15.3c4.6,5 10.1,9.5 16.5,13.5c6.4,4 13,7.2 19.8,9.6c6.8,2.4 12.4,3.6 16.8,3.6c4,0 6.3,-0.2 6.9,-0.6c0.6,-0.4 1.7,-0.9 3.3,-1.5c1.6,-0.6 4.9,-1.4 9.9,-2.4c5,-1 13.9,-2.1 26.7,-3.3c14.8,-1.2 26,-2 33.6,-2.4c7.6,-0.4 14.8,-0.6 21.6,-0.6c9.2,0 21.4,0.1 36.6,0.3c15.2,0.2 34,0.3 56.4,0.3l93,0c14,0 24.2,-2.7 30.6,-8.1c6.4,-5.4 9.6,-11.5 9.6,-18.3c0,-6.8 -3,-12.9 -9,-18.3c-6,-5.4 -14.2,-8.1 -24.6,-8.1c-7.2,0 -16.6,1.6 -28.2,4.8Zm-67.8,-135.6l-128.4,0l0,-73.8l128.4,0l0,73.8Zm-12,-192l-4.8,0c-13.2,0 -19.8,3.6 -19.8,10.8c0,3.2 1.5,6 4.5,8.4c3,2.4 6.4,4.8 10.2,7.2c3.8,2.4 7.8,4.7 12,6.9c4.2,2.2 7.5,4.7 9.9,7.5l0,46.2l-127.2,0l0,-45c0,-8 -4.9,-14 -14.7,-18c-9.8,-4 -20.1,-6 -30.9,-6c-10.4,0 -18.9,1.7 -25.5,5.1c-6.6,3.4 -9.9,6.7 -9.9,9.9c0,2 1.7,4.1 5.1,6.3c3.4,2.2 7.2,4.5 11.4,6.9c4.2,2.4 8.2,5.2 12,8.4c3.8,3.2 5.9,6.6 6.3,10.2l0,139.2c0,13.2 2.3,22.9 6.9,29.1c4.6,6.2 9.9,9.3 15.9,9.3c4.4,0 8.8,-1.8 13.2,-5.4c4.4,-3.6 8,-8.8 10.8,-15.6l23.4,0c11.6,0 23.9,-0.1 36.9,-0.3c13,-0.2 25.2,-0.4 36.6,-0.6c11.4,-0.2 19.3,-0.5 23.7,-0.9c0.8,8 2.9,13.8 6.3,17.4c3.4,3.6 7.1,5.4 11.1,5.4c6,0 11.1,-2.4 15.3,-7.2c4.2,-4.8 7.7,-10.7 10.5,-17.7c2.8,-7 4.8,-14.2 6,-21.6c1.2,-7.4 1.8,-13.7 1.8,-18.9c0,-7.6 0.1,-18.9 0.3,-33.9c0.2,-15 0.5,-30.4 0.9,-46.2c0.4,-15.8 0.7,-30.2 0.9,-43.2c0.2,-13 0.3,-21.3 0.3,-24.9c0,-6.8 -1.4,-12.1 -4.2,-15.9c-2.8,-3.8 -6.7,-6.7 -11.7,-8.7c-5,-2 -11.2,-3.2 -18.6,-3.6c-7.4,-0.4 -15.7,-0.6 -24.9,-0.6Z" style="fill:#fff;fill-rule:nonzero;stroke:#fff;stroke-width:4.17px;stroke-linecap:butt;stroke-miterlimit:2;"/><path d="M11.605,1093.75c-2.637,0.049 -4.883,1.013 -6.738,2.893c-1.856,1.88 -2.784,4.138 -2.784,6.775l0,90.527c0,2.686 0.94,4.969 2.82,6.848c1.88,1.88 4.163,2.82 6.848,2.82c2.686,0 4.969,-0.94 6.848,-2.82c1.88,-1.879 2.82,-4.162 2.82,-6.848l0,-30.542l10.987,-11.206l32.08,46.656c0.781,1.171 1.953,2.16 3.515,2.966c1.563,0.806 3.052,1.208 4.468,1.208c2.686,0 4.968,-0.94 6.848,-2.819c1.88,-1.88 2.82,-4.163 2.82,-6.849c0,-2.002 -0.561,-3.833 -1.685,-5.493l-34.277,-49.804l26.734,-27.466c0.781,-0.782 1.452,-1.856 2.014,-3.223c0.561,-1.367 0.842,-2.588 0.842,-3.662c0,-2.686 -0.94,-4.968 -2.82,-6.848c-1.88,-1.88 -4.162,-2.82 -6.848,-2.82l-0.366,0c-1.074,0.049 -2.271,0.366 -3.589,0.952c-1.318,0.586 -2.344,1.27 -3.076,2.051l-37.647,38.599l0,-32.227c0,-2.686 -0.94,-4.968 -2.82,-6.848c-1.879,-1.88 -4.162,-2.82 -6.848,-2.82l-0.146,0Z" style="fill-rule:nonzero;stroke:#000;stroke-width:4.17px;stroke-linecap:butt;stroke-miterlimit:2;"/><path d="M105.648,1093.75c-2.735,0 -5.054,0.952 -6.958,2.856c-1.905,1.905 -2.857,4.224 -2.857,6.958l0,90.235c0,2.734 0.952,5.054 2.857,6.958c1.904,1.904 4.223,2.856 6.958,2.856l54.638,0c2.735,0 5.054,-0.952 6.958,-2.856c1.905,-1.904 2.857,-4.224 2.857,-6.958c0,-2.686 -0.952,-4.981 -2.857,-6.885c-1.904,-1.904 -4.223,-2.856 -6.958,-2.856l-44.897,0l0,-28.565l41.089,0c2.734,0 5.054,-0.964 6.958,-2.893c1.904,-1.929 2.856,-4.236 2.856,-6.921c0,-2.686 -0.952,-4.993 -2.856,-6.922c-1.904,-1.928 -4.224,-2.893 -6.958,-2.893l-0.073,0.074l-41.016,0l0,-22.632l45.044,0c2.734,0 5.054,-0.952 6.958,-2.857c1.904,-1.904 2.856,-4.199 2.856,-6.885c0,-2.734 -0.952,-5.053 -2.856,-6.958c-1.904,-1.904 -4.224,-2.856 -6.958,-2.856l-54.785,0Z" style="fill-rule:nonzero;stroke:#000;stroke-width:4.17px;stroke-linecap:butt;stroke-miterlimit:2;"/><path d="M199.032,1093.75c-2.588,0.049 -4.81,1.038 -6.665,2.966c-1.856,1.929 -2.784,4.187 -2.784,6.775c0,1.807 0.44,3.467 1.319,4.981l28.711,50.097l0,35.303c0,2.686 0.952,4.981 2.856,6.885c1.904,1.904 4.199,2.856 6.885,2.856c2.685,0 4.98,-0.952 6.885,-2.856c1.904,-1.904 2.856,-4.199 2.856,-6.885l0,-34.424l28.784,-50.903c0.83,-1.416 1.245,-3.003 1.245,-4.761c0,-2.734 -0.952,-5.054 -2.856,-6.958c-1.904,-1.904 -4.199,-2.856 -6.885,-2.856c-1.562,0 -3.174,0.488 -4.834,1.465c-1.66,0.976 -2.881,2.148 -3.662,3.515l-21.313,37.72l-21.68,-37.94c-0.781,-1.367 -2.014,-2.539 -3.699,-3.515c-1.684,-0.977 -3.308,-1.465 -4.87,-1.465l-0.293,0Z" style="fill-rule:nonzero;stroke:#000;stroke-width:4.17px;stroke-linecap:butt;stroke-miterlimit:2;"/><path d="M299.593,1093.75c-2.539,0.244 -4.663,1.294 -6.372,3.149c-1.709,1.856 -2.563,4.078 -2.563,6.665l0,90.235c0,2.734 0.952,5.054 2.856,6.958c1.904,1.904 4.224,2.856 6.958,2.856l42.627,0c7.471,-0.146 14.087,-2.539 19.849,-7.177c5.761,-4.639 9.57,-10.499 11.425,-17.579c1.368,-5.322 0.867,-10.839 -1.501,-16.552c-2.368,-5.713 -6.213,-11.158 -11.536,-16.333c4.297,-4.737 7.373,-9.619 9.229,-14.649c1.855,-5.029 2.148,-9.936 0.879,-14.721c-1.758,-6.592 -5.506,-12.037 -11.243,-16.333c-5.737,-4.297 -12.341,-6.47 -19.812,-6.519l-40.796,0Zm10.62,19.556l29.956,0c3.467,0.048 6.25,0.83 8.35,2.343c2.099,1.514 3.467,3.467 4.101,5.86c1.368,5.224 -0.805,10.107 -6.518,14.648l-35.889,0l0,-22.851Zm0,42.48l35.083,0c8.545,5.371 11.914,11.426 10.108,18.164c-0.684,2.735 -2.222,5.078 -4.615,7.031c-2.392,1.954 -5.029,2.979 -7.91,3.077l-32.666,0l0,-28.272Z" style="fill-rule:nonzero;stroke:#000;stroke-width:4.17px;stroke-linecap:butt;stroke-miterlimit:2;"/><path d="M457.32,1098.47c-5.737,-3.149 -11.828,-4.724 -18.274,-4.724c-6.445,0 -12.573,1.575 -18.384,4.724c-5.81,3.15 -10.913,7.385 -15.307,12.708c-4.297,5.175 -7.642,10.974 -10.034,17.395c-2.393,6.421 -3.589,13.122 -3.589,20.105c0,6.982 1.233,13.733 3.699,20.251c2.465,6.519 5.847,12.366 10.144,17.542c4.394,5.273 9.472,9.448 15.234,12.524c5.762,3.076 11.841,4.614 18.237,4.614c6.397,0 12.476,-1.538 18.238,-4.614c5.761,-3.076 10.839,-7.251 15.234,-12.524c4.248,-5.127 7.568,-10.95 9.961,-17.469c2.392,-6.518 3.589,-13.293 3.589,-20.324c0,-6.983 -1.184,-13.684 -3.553,-20.105c-2.368,-6.421 -5.7,-12.22 -9.997,-17.395c-4.395,-5.323 -9.461,-9.558 -15.198,-12.708Zm-27.832,17.542c3.247,-1.807 6.433,-2.71 9.558,-2.71c3.125,0 6.311,0.903 9.558,2.71c3.247,1.806 6.214,4.345 8.899,7.617c2.783,3.369 4.981,7.239 6.592,11.609c1.611,4.37 2.417,8.85 2.417,13.44c0,4.589 -0.806,9.106 -2.417,13.549c-1.611,4.444 -3.809,8.35 -6.592,11.719c-2.685,3.272 -5.639,5.774 -8.862,7.508c-3.223,1.733 -6.421,2.6 -9.595,2.6c-3.174,0 -6.372,-0.867 -9.595,-2.6c-3.222,-1.734 -6.176,-4.236 -8.862,-7.508c-2.783,-3.418 -5.029,-7.361 -6.738,-11.828c-1.709,-4.468 -2.564,-8.948 -2.564,-13.44c0,-4.541 0.843,-8.997 2.527,-13.367c1.685,-4.37 3.943,-8.264 6.775,-11.682c2.686,-3.272 5.652,-5.811 8.899,-7.617Z" style="fill-rule:nonzero;stroke:#000;stroke-width:4.17px;stroke-linecap:butt;stroke-miterlimit:2;"/><path d="M548.543,1093.75c-3.418,0.049 -6.592,1.221 -9.521,3.516c-2.93,2.295 -4.956,5.151 -6.079,8.569l0,0.073l-18.75,51.196c-0.342,0.733 -0.611,1.49 -0.806,2.271l-11.206,30.615c-0.439,1.123 -0.659,2.32 -0.659,3.589c0,2.832 0.989,5.225 2.966,7.178c1.978,1.953 4.382,2.93 7.214,2.93c2.002,0 3.943,-0.66 5.823,-1.978c1.88,-1.318 3.137,-2.905 3.772,-4.761l9.155,-25.122l35.889,-0.293l9.082,25.342c0.635,1.904 1.904,3.528 3.809,4.871c1.904,1.342 3.857,2.014 5.859,2.014c2.832,0 5.225,-0.977 7.178,-2.93c1.953,-1.953 2.93,-4.346 2.93,-7.178c0,-1.367 -0.196,-2.563 -0.586,-3.589l-30.103,-84.008l0,-0.074c-1.123,-3.466 -3.149,-6.359 -6.079,-8.679c-2.93,-2.319 -6.128,-3.503 -9.595,-3.552l-0.293,0Zm0.147,28.345l10.473,29.15l-21.24,0.22l10.767,-29.37Z" style="fill-rule:nonzero;stroke:#000;stroke-width:4.17px;stroke-linecap:butt;stroke-miterlimit:2;"/><path d="M619.661,1093.75l-1.025,0c-2.393,0.244 -4.431,1.318 -6.116,3.223c-1.684,1.904 -2.527,4.052 -2.527,6.445l0,90.454c0,2.686 0.94,4.968 2.82,6.848c1.88,1.88 4.163,2.82 6.848,2.82c2.686,0 4.981,-0.94 6.885,-2.82c1.905,-1.88 2.857,-4.162 2.857,-6.848l0,-34.058l22.924,0c1.807,0 3.467,0.33 4.981,0.989c1.514,0.659 2.624,1.319 3.332,1.978c0.708,0.659 1.795,1.745 3.26,3.259c2.295,2.393 3.772,5.591 4.431,9.595c0.659,4.004 0.989,9.961 0.989,17.871l0,0.073c0,2.686 0.94,4.981 2.819,6.885c1.88,1.904 4.163,2.856 6.849,2.856c2.685,0 4.98,-0.952 6.884,-2.856c1.905,-1.904 2.857,-4.199 2.857,-6.885l0,-0.073c0,-2.881 -0.012,-4.968 -0.037,-6.262c-0.024,-1.294 -0.097,-3.284 -0.22,-5.97c-0.122,-2.685 -0.305,-4.773 -0.549,-6.262c-0.244,-1.489 -0.622,-3.406 -1.135,-5.749c-0.513,-2.344 -1.16,-4.334 -1.941,-5.97c-0.781,-1.635 -1.758,-3.393 -2.93,-5.273c-1.172,-1.88 -2.514,-3.625 -4.028,-5.237l0,-0.293c-0.098,-0.097 -0.354,-0.305 -0.769,-0.622c-0.415,-0.318 -0.696,-0.55 -0.842,-0.696c4.394,-3.467 7.8,-7.544 10.217,-12.232c2.417,-4.687 3.503,-9.692 3.259,-15.014c-0.146,-3.711 -1.05,-7.349 -2.71,-10.913c-1.66,-3.565 -3.894,-6.751 -6.701,-9.558c-2.808,-2.808 -6.275,-5.066 -10.401,-6.775c-4.126,-1.709 -8.557,-2.588 -13.293,-2.637l-0.293,0l-36.695,-0.293Zm9.742,19.409l26.953,0.293c4.931,0 8.459,1.074 10.583,3.223c2.124,2.148 3.26,4.834 3.406,8.056c0.195,4.053 -1.367,7.679 -4.687,10.877c-3.321,3.198 -7.764,4.797 -13.331,4.797l-22.924,0l0,-27.246Z" style="fill-rule:nonzero;stroke:#000;stroke-width:4.17px;stroke-linecap:butt;stroke-miterlimit:2;"/><path d="M713.631,1093.75c-2.685,0 -5.005,0.977 -6.958,2.93c-1.953,1.953 -2.93,4.272 -2.93,6.958l0,90.088c0,2.685 0.977,5.004 2.93,6.958c1.953,1.953 4.273,2.929 6.958,2.929l35.01,0c7.861,0 14.893,-1.941 21.094,-5.822c6.201,-3.882 11.059,-8.802 14.575,-14.759c5.566,-9.472 8.301,-20.41 8.203,-32.812c-0.049,-4.883 -0.745,-10.218 -2.087,-16.004c-1.343,-5.786 -3.479,-11.413 -6.409,-16.882c-3.565,-6.641 -8.386,-12.183 -14.465,-16.626c-6.08,-4.443 -13.123,-6.665 -21.131,-6.665l-34.79,-0.293Zm9.815,19.702l24.975,0.293c4.297,0 7.813,1.062 10.547,3.186c2.734,2.124 5.249,5.359 7.544,9.705c1.953,3.662 3.491,7.8 4.614,12.414c1.123,4.615 1.685,8.338 1.685,11.17c0,3.759 -0.464,7.763 -1.392,12.011c-0.927,4.248 -2.295,7.911 -4.101,10.987c-2.1,3.613 -4.554,6.299 -7.361,8.056c-2.808,1.758 -6.58,2.637 -11.316,2.637l-25.195,0l0,-70.459Z" style="fill-rule:nonzero;stroke:#000;stroke-width:4.17px;stroke-linecap:butt;stroke-miterlimit:2;"/><path d="M823.568,1093.75l-1.612,0c-2.295,0.342 -4.26,1.453 -5.896,3.333c-1.635,1.879 -2.453,3.991 -2.453,6.335l0,90.381c0,2.685 0.952,4.98 2.856,6.885c1.905,1.904 4.199,2.856 6.885,2.856c2.686,0 4.968,-0.952 6.848,-2.856c1.88,-1.905 2.82,-4.2 2.82,-6.885l0,-42.774l19.995,46.436c0.684,1.709 1.917,3.162 3.699,4.358c1.782,1.196 3.576,1.794 5.383,1.794c1.807,0 3.589,-0.598 5.347,-1.794c1.758,-1.196 2.978,-2.649 3.662,-4.358l19.482,-45.337l0,41.675c0,2.685 0.94,4.98 2.82,6.885c1.88,1.904 4.163,2.856 6.848,2.856c2.686,0 4.981,-0.952 6.885,-2.856c1.904,-1.905 2.856,-4.2 2.856,-6.885l0,-90.015c-0.048,-2.637 -1.025,-4.907 -2.929,-6.811c-1.904,-1.905 -4.175,-2.857 -6.812,-2.857c-1.758,0 -3.503,0.574 -5.237,1.721c-1.733,1.148 -2.941,2.527 -3.625,4.139l-29.443,68.554l-29.444,-68.847c-0.683,-1.661 -1.892,-3.064 -3.625,-4.212c-1.734,-1.147 -3.504,-1.721 -5.31,-1.721Z" style="fill-rule:nonzero;stroke:#000;stroke-width:4.17px;stroke-linecap:butt;stroke-miterlimit:2;"/><path d="M979.207,1093.75c-3.418,0.049 -6.591,1.221 -9.521,3.516c-2.93,2.295 -4.956,5.151 -6.079,8.569l0,0.073l-18.75,51.196c-0.342,0.733 -0.611,1.49 -0.806,2.271l-11.206,30.615c-0.439,1.123 -0.659,2.32 -0.659,3.589c0,2.832 0.989,5.225 2.966,7.178c1.978,1.953 4.383,2.93 7.215,2.93c2.001,0 3.942,-0.66 5.822,-1.978c1.88,-1.318 3.137,-2.905 3.772,-4.761l9.156,-25.122l35.888,-0.293l9.082,25.342c0.635,1.904 1.905,3.528 3.809,4.871c1.904,1.342 3.857,2.014 5.859,2.014c2.832,0 5.225,-0.977 7.178,-2.93c1.953,-1.953 2.93,-4.346 2.93,-7.178c0,-1.367 -0.196,-2.563 -0.586,-3.589l-30.103,-84.008l0,-0.074c-1.123,-3.466 -3.149,-6.359 -6.079,-8.679c-2.93,-2.319 -6.128,-3.503 -9.595,-3.552l-0.293,0Zm0.147,28.345l10.473,29.15l-21.24,0.22l10.767,-29.37Z" style="fill-rule:nonzero;stroke:#000;stroke-width:4.17px;stroke-linecap:butt;stroke-miterlimit:2;"/><path d="M1049.96,1093.75c-2.539,0.098 -4.724,1.111 -6.555,3.04c-1.831,1.928 -2.746,4.187 -2.746,6.774l0,90.235c0,2.734 0.952,5.054 2.856,6.958c1.904,1.904 4.224,2.856 6.958,2.856c2.686,0 4.98,-0.952 6.885,-2.856c1.904,-1.904 2.856,-4.224 2.856,-6.958l0,-59.693l46.436,65.259c0.781,1.123 1.953,2.088 3.515,2.893c1.563,0.806 3.052,1.209 4.468,1.209c2.735,0 5.054,-0.952 6.958,-2.857c1.904,-1.904 2.857,-4.223 2.857,-6.958l0,-90.088c0,-2.734 -0.953,-5.053 -2.857,-6.958c-1.904,-1.904 -4.223,-2.856 -6.958,-2.856c-2.734,0 -5.054,0.952 -6.958,2.856c-1.904,1.905 -2.856,4.224 -2.856,6.958l0,59.473l-46.436,-65.185c-0.83,-1.123 -2.014,-2.088 -3.552,-2.894c-1.538,-0.805 -2.991,-1.208 -4.358,-1.208l-0.513,0Z" style="fill-rule:nonzero;stroke:#000;stroke-width:4.17px;stroke-linecap:butt;stroke-miterlimit:2;"/></g></g></svg>