<?xml version="1.0" encoding="UTF-8" standalone="no"?><!DOCTYPE svg PUBLIC "-//W3C//DTD SVG 1.1//EN" "http://www.w3.org/Graphics/SVG/1.1/DTD/svg11.dtd"><svg width="100%" height="100%" viewBox="0 0 200 200" version="1.1" xmlns="http://www.w3.org/2000/svg" xmlns:xlink="http://www.w3.org/1999/xlink" xml:space="preserve" xmlns:serif="http://www.serif.com/" style="fill-rule:evenodd;clip-rule:evenodd;stroke-linecap:round;stroke-linejoin:round;stroke-miterlimit:1.5;"><g id="Layer1"><circle cx="100" cy="100" r="80" style="fill:none;stroke:#000;stroke-width:16px;"/><path d="M71.723,82.422c-0.641,0.015 -1.246,0.242 -1.817,0.68c-0.57,0.437 -0.941,0.96 -1.113,1.57l-5.719,18.773l-5.297,-18.726c-0.172,-0.625 -0.554,-1.157 -1.148,-1.594c-0.594,-0.438 -1.211,-0.656 -1.852,-0.656c-0.656,0 -1.277,0.222 -1.863,0.668c-0.586,0.445 -0.965,0.988 -1.137,1.629l-4.992,18.351l-5.578,-18.328c-0.172,-0.625 -0.551,-1.152 -1.137,-1.582c-0.586,-0.43 -1.199,-0.645 -1.84,-0.645c-0.859,0 -1.593,0.301 -2.203,0.903c-0.609,0.601 -0.914,1.332 -0.914,2.191c0,0.281 0.047,0.594 0.141,0.938l8.742,28.664c0.188,0.609 0.57,1.129 1.149,1.558c0.578,0.43 1.187,0.645 1.828,0.645c0.656,0 1.277,-0.223 1.863,-0.668c0.586,-0.445 0.965,-0.988 1.137,-1.629l4.875,-17.953l5.132,18.117c0.172,0.625 0.555,1.156 1.149,1.594c0.594,0.437 1.211,0.656 1.851,0.656c0.641,0 1.25,-0.215 1.829,-0.644c0.578,-0.43 0.961,-0.95 1.148,-1.559l8.789,-28.898c0.094,-0.344 0.141,-0.657 0.141,-0.938c0,-0.859 -0.301,-1.594 -0.903,-2.203c-0.601,-0.609 -1.332,-0.914 -2.191,-0.914l-0.07,0Z" style="fill-rule:nonzero;"/><path d="M116.723,82.422c-0.641,0.015 -1.246,0.242 -1.817,0.68c-0.57,0.437 -0.941,0.96 -1.113,1.57l-5.719,18.773l-5.297,-18.726c-0.172,-0.625 -0.554,-1.157 -1.148,-1.594c-0.594,-0.438 -1.211,-0.656 -1.852,-0.656c-0.656,0 -1.277,0.222 -1.863,0.668c-0.586,0.445 -0.965,0.988 -1.137,1.629l-4.992,18.351l-5.578,-18.328c-0.172,-0.625 -0.551,-1.152 -1.137,-1.582c-0.586,-0.43 -1.199,-0.645 -1.84,-0.645c-0.859,0 -1.593,0.301 -2.203,0.903c-0.609,0.601 -0.914,1.332 -0.914,2.191c0,0.281 0.047,0.594 0.141,0.938l8.742,28.664c0.188,0.609 0.57,1.129 1.149,1.558c0.578,0.43 1.187,0.645 1.828,0.645c0.656,0 1.277,-0.223 1.863,-0.668c0.586,-0.445 0.965,-0.988 1.137,-1.629l4.875,-17.953l5.132,18.117c0.172,0.625 0.555,1.156 1.149,1.594c0.594,0.437 1.211,0.656 1.851,0.656c0.641,0 1.25,-0.215 1.829,-0.644c0.578,-0.43 0.961,-0.95 1.148,-1.559l8.789,-28.898c0.094,-0.344 0.141,-0.657 0.141,-0.938c0,-0.859 -0.301,-1.594 -0.903,-2.203c-0.601,-0.609 -1.332,-0.914 -2.191,-0.914l-0.07,0Z" style="fill-rule:nonzero;"/><path d="M161.723,82.422c-0.641,0.015 -1.246,0.242 -1.817,0.68c-0.57,0.437 -0.941,0.96 -1.113,1.57l-5.719,18.773l-5.297,-18.726c-0.172,-0.625 -0.554,-1.157 -1.148,-1.594c-0.594,-0.438 -1.211,-0.656 -1.852,-0.656c-0.656,0 -1.277,0.222 -1.863,0.668c-0.586,0.445 -0.965,0.988 -1.137,1.629l-4.992,18.351l-5.578,-18.328c-0.172,-0.625 -0.551,-1.152 -1.137,-1.582c-0.586,-0.43 -1.199,-0.645 -1.84,-0.645c-0.859,0 -1.593,0.301 -2.203,0.903c-0.609,0.601 -0.914,1.332 -0.914,2.191c0,0.281 0.047,0.594 0.141,0.938l8.742,28.664c0.188,0.609 0.57,1.129 1.149,1.558c0.578,0.43 1.187,0.645 1.828,0.645c0.656,0 1.277,-0.223 1.863,-0.668c0.586,-0.445 0.965,-0.988 1.137,-1.629l4.875,-17.953l5.132,18.117c0.172,0.625 0.555,1.156 1.149,1.594c0.594,0.437 1.211,0.656 1.851,0.656c0.641,0 1.25,-0.215 1.829,-0.644c0.578,-0.43 0.961,-0.95 1.148,-1.559l8.789,-28.898c0.094,-0.344 0.141,-0.657 0.141,-0.938c0,-0.859 -0.301,-1.594 -0.903,-2.203c-0.601,-0.609 -1.332,-0.914 -2.191,-0.914l-0.07,0Z" style="fill-rule:nonzero;"/></g></svg>